# xmcd
#
# Track frame offsets:
# 150
# 13535
# 28646
# 42906
# 59456
# 75605
#
# Disc length: 1194 seconds
#
# Revision: 0
# Processed by: cddbd v1.4PL0 Copyright (c) Steve Scherf et al.
# Submitted via: Audion 2.6.0 (http://www.panic.com/audion/)
#
DISCID=4004a806
DTITLE=Night Train - Bentley's Boogie
DYEAR=1900
DGENRE=
TTITLE0=Jumpin' At The Jubilee (Turner)
TTITLE1=Tell Me What I Did Wrong (Brown)
TTITLE2=Bentley's Boogie (M. Arnold)
TTITLE3=Letter To My Girlfriend (Jones)
TTITLE4=I Aint't Got You (Carter)
TTITLE5=Hip Hug Her (Cropper, Dunn, Jackson, Jones)
EXTD=
EXTT0=
EXTT1=
EXTT2=
EXTT3=
EXTT4=
EXTT5=
PLAYORDER=
